<svg width="512" height="512" viewBox="0 0 512 512" xmlns="http://www.w3.org/2000/svg"><title>search</title><path d="M280.978 320.447l107.668 75.39c10.867 7.61 25.84 4.974 33.45-5.89 7.605-10.864 4.97-25.832-5.906-33.447l-105.456-73.84c8.658-16.94 13.542-36.133 13.542-56.466 0-68.59-55.578-124.194-124.138-124.194S76 157.603 76 226.194c0 68.59 55.578 124.194 124.138 124.194 30.877 0 59.12-11.278 80.84-29.94zm-80.84-18.08c42.05 0 76.138-34.104 76.138-76.173 0-42.07-34.088-76.172-76.138-76.172-42.05 0-76.138 34.103-76.138 76.172 0 42.07 34.088 76.172 76.138 76.172z" stroke-opacity=".296" stroke="#000" fill="#fff"/></svg>